<?xml version="1.0" encoding="utf-8"?>
<!-- Svg Vector Icons : http://www.onlinewebfonts.com/icon -->
<!DOCTYPE svg PUBLIC "-//W3C//DTD SVG 1.1//EN" "http://www.w3.org/Graphics/SVG/1.1/DTD/svg11.dtd">
<svg version="1.1" xmlns="http://www.w3.org/2000/svg" xmlns:xlink="http://www.w3.org/1999/xlink" x="0px" y="0px" viewBox="0 0 1000 1000" enable-background="new 0 0 1000 1000" xml:space="preserve">
<metadata> Svg Vector Icons : http://www.onlinewebfonts.com/icon </metadata>
<g><g><g><g id="West"><g><path d="M684.4,438.8H471.1l1.3-8l68.2-68.9c21.5-21.7,26.7-56.5,9-81.3c-22.6-31.6-66.4-34.2-92.5-7.8l-184.2,186c-11.4,11.5-17.8,27.1-17.8,43.4c0,16.3,6.4,31.9,17.8,43.4l183.8,181.7c23.7,24,62.2,24,85.9,0c23.8-24,23.8-62.8,0-86.8l-80.6-79.3h222.5c33.5,0,60.6-27.1,60.6-60.6v-1.2C745,465.9,717.8,438.8,684.4,438.8z M500,10C229.4,10,10,229.4,10,500c0,270.6,219.4,490,490,490c270.6,0,490-219.4,490-490C990,229.4,770.6,10,500,10z M500,867.5c-202.6,0-367.5-164.9-367.5-367.5c0-202.6,164.9-367.5,367.5-367.5c202.6,0,367.5,164.9,367.5,367.5C867.5,702.6,702.6,867.5,500,867.5z"/></g></g></g></g><g></g><g></g><g></g><g></g><g></g><g></g><g></g><g></g><g></g><g></g><g></g><g></g><g></g><g></g><g></g></g>
</svg>